<svg width="16" height="16" viewBox="0 0 16 16" fill="none" xmlns="http://www.w3.org/2000/svg">
<path d="M2.22526 0.811448C1.83474 0.420924 1.20158 0.420924 0.811051 0.811448C0.420527 1.20197 0.420527 1.83514 0.811051 2.22566L6.58579 8.0004L0.811111 13.7751C0.420587 14.1656 0.420587 14.7988 0.811111 15.1893C1.20164 15.5798 1.8348 15.5798 2.22532 15.1893L8 9.41461L13.7747 15.1893C14.1652 15.5798 14.7984 15.5798 15.1889 15.1893C15.5794 14.7988 15.5794 14.1656 15.1889 13.7751L9.41421 8.0004L15.1889 2.22566C15.5795 1.83514 15.5795 1.20197 15.1889 0.811448C14.7984 0.420924 14.1653 0.420924 13.7747 0.811448L8 6.58618L2.22526 0.811448Z" fill="#616B84"/>
</svg>
