<svg width="14" height="15" viewBox="0 0 14 15" fill="none" xmlns="http://www.w3.org/2000/svg">
<path d="M7.0005 5.0626C5.65431 5.0626 4.563 6.1539 4.563 7.5001C4.563 8.84629 5.65431 9.9376 7.0005 9.9376C8.3467 9.9376 9.438 8.84629 9.438 7.5001C9.438 6.1539 8.3467 5.0626 7.0005 5.0626Z" fill="white"/>
<path fill-rule="evenodd" clip-rule="evenodd" d="M3.07766 0.811197C5.66375 0.522163 8.33728 0.522163 10.9234 0.811197C12.3472 0.970327 13.4956 2.09216 13.6627 3.52095C13.9719 6.1647 13.9719 8.83549 13.6627 11.4792C13.4956 12.908 12.3472 14.0299 10.9234 14.189C8.33728 14.478 5.66375 14.478 3.07766 14.189C1.65386 14.0299 0.505463 12.908 0.338353 11.4792C0.0291426 8.83549 0.0291426 6.1647 0.338353 3.52095C0.505463 2.09216 1.65386 0.970327 3.07766 0.811197ZM10.7505 3.0001C10.3363 3.0001 10.0005 3.33588 10.0005 3.7501C10.0005 4.16431 10.3363 4.5001 10.7505 4.5001C11.1647 4.5001 11.5005 4.16431 11.5005 3.7501C11.5005 3.33588 11.1647 3.0001 10.7505 3.0001ZM3.438 7.5001C3.438 5.53258 5.03299 3.9376 7.0005 3.9376C8.96802 3.9376 10.563 5.53258 10.563 7.5001C10.563 9.46761 8.96802 11.0626 7.0005 11.0626C5.03299 11.0626 3.438 9.46761 3.438 7.5001Z" fill="white"/>
</svg>
