<svg width="32" height="259" viewBox="0 0 32 259" fill="none" xmlns="http://www.w3.org/2000/svg">
<path d="M20 249.732L20 251.44L15.814 251.44L15.814 255.92L20 255.92L20 257.642L10.2 257.642L10.2 255.92L14.204 255.92L14.204 251.44L10.2 251.44L10.2 249.732L20 249.732ZM20 244.543L20 246.279L10.172 242.135L10.172 240.623L20 236.479L20 238.313L17.494 239.335L17.494 243.521L20 244.543ZM15.884 239.993L12.398 241.421L15.884 242.863L15.884 239.993ZM20 226.322L20 228.044L10.2 228.044L10.2 222.514L11.81 222.514L11.81 226.322L20 226.322ZM15.1 220.046C13.672 220.046 12.4727 219.57 11.502 218.618C10.5313 217.647 10.046 216.424 10.046 214.95C10.046 213.475 10.5127 212.257 11.446 211.296C12.3887 210.325 13.6067 209.84 15.1 209.84C16.5653 209.84 17.774 210.325 18.726 211.296C19.678 212.266 20.154 213.484 20.154 214.95C20.154 216.424 19.6873 217.642 18.754 218.604C17.8207 219.565 16.6027 220.046 15.1 220.046ZM15.1 218.226C16.0893 218.226 16.9107 217.913 17.564 217.288C18.2173 216.662 18.544 215.883 18.544 214.95C18.544 213.942 18.2173 213.144 17.564 212.556C16.9107 211.958 16.0893 211.66 15.1 211.66C14.1013 211.66 13.2753 211.977 12.622 212.612C11.978 213.246 11.656 214.026 11.656 214.95C11.656 215.892 11.978 216.676 12.622 217.302C13.266 217.918 14.092 218.226 15.1 218.226ZM20 198.685L20 200.393L11.81 200.393L11.81 203.249L13.658 203.445C14.778 203.557 15.7347 203.702 16.528 203.879C17.3213 204.057 17.956 204.253 18.432 204.467C18.908 204.682 19.272 204.939 19.524 205.237C19.776 205.527 19.9347 205.83 20 206.147C20.056 206.455 20.056 206.815 20 207.225L18.292 207.183C18.32 206.978 18.3107 206.81 18.264 206.679C18.2173 206.549 18.0867 206.395 17.872 206.217C17.6293 206.021 17.3073 205.863 16.906 205.741C15.9073 205.405 14.3253 205.158 12.16 204.999L10.2 204.859L10.2 198.685L20 198.685ZM15.1 194.704C13.672 194.704 12.4727 194.228 11.502 193.276C10.5313 192.305 10.046 191.083 10.046 189.608C10.046 188.133 10.5127 186.915 11.446 185.954C12.3887 184.983 13.6067 184.498 15.1 184.498C16.5653 184.498 17.774 184.983 18.726 185.954C19.678 186.925 20.154 188.143 20.154 189.608C20.154 191.083 19.6873 192.301 18.754 193.262C17.8207 194.223 16.6027 194.704 15.1 194.704ZM15.1 192.884C16.0893 192.884 16.9107 192.571 17.564 191.946C18.2173 191.321 18.544 190.541 18.544 189.608C18.544 188.6 18.2173 187.802 17.564 187.214C16.9107 186.617 16.0893 186.318 15.1 186.318C14.1013 186.318 13.2753 186.635 12.622 187.27C11.978 187.905 11.656 188.684 11.656 189.608C11.656 190.551 11.978 191.335 12.622 191.96C13.266 192.576 14.092 192.884 15.1 192.884ZM19.986 180.505L10.228 180.505C10.1813 179.497 10.158 178.555 10.158 177.677C10.158 176.595 10.3727 175.787 10.802 175.255C11.2313 174.723 11.824 174.457 12.58 174.457C13.6347 174.457 14.3767 174.924 14.806 175.857L14.834 175.857C14.974 175.325 15.24 174.905 15.632 174.597C16.0147 174.289 16.5093 174.135 17.116 174.135C18.068 174.135 18.796 174.462 19.3 175.115C19.804 175.769 20.056 176.655 20.056 177.775C20.056 178.895 20.0327 179.805 19.986 180.505ZM15.786 177.565L15.786 178.783L18.376 178.783C18.4227 178.345 18.446 177.967 18.446 177.649C18.446 176.455 17.9747 175.857 17.032 175.857C16.6213 175.857 16.3133 176.007 16.108 176.305C15.8933 176.604 15.786 177.024 15.786 177.565ZM11.768 177.705C11.768 178.116 11.782 178.475 11.81 178.783L14.288 178.783L14.288 177.621C14.288 177.183 14.176 176.833 13.952 176.571C13.728 176.301 13.406 176.165 12.986 176.165C12.594 176.165 12.2953 176.301 12.09 176.571C11.8753 176.842 11.768 177.22 11.768 177.705ZM20 161.955L20 163.663L15.814 163.663L15.814 168.143L20 168.143L20 169.865L10.2 169.865L10.2 168.143L14.204 168.143L14.204 163.663L10.2 163.663L10.2 161.955L20 161.955ZM10.2 150.942L10.2 149.206L17.718 152.538C18.502 152.883 19.0807 153.27 19.454 153.7C19.818 154.12 20 154.619 20 155.198C20 155.776 19.8693 156.224 19.608 156.542L18.152 155.94C18.3107 155.697 18.39 155.454 18.39 155.212C18.39 154.773 18.1613 154.451 17.704 154.246L17.368 154.106L10.2 158.432L10.2 156.486L15.674 153.28L10.2 150.942Z" fill="#406440"/>
<path d="M14.5762 128.919L14.5762 3.87983L14.5762 128.919Z" fill="#406440"/>
<path d="M14.5762 128.919L14.5762 3.87983" stroke="#406440" stroke-width="2" stroke-linecap="round"/>
<path d="M2.91943 13.7412L14.5003 2.07935L26.0807 13.7412" stroke="#406440" stroke-width="2" stroke-linecap="round" stroke-linejoin="round"/>
</svg>
