<svg width="60" height="60" viewBox="0 0 60 60" fill="none" xmlns="http://www.w3.org/2000/svg">
<path d="M43.9384 59.3798H43.8557H27.3585H27.3581V59.1798C26.9815 59.1805 26.6167 59.0482 26.3282 58.8062C26.0397 58.5641 25.8459 58.2279 25.7812 57.857L43.9384 59.3798ZM43.9384 59.3798L43.9422 59.3761C44.1923 59.3648 44.4377 59.3013 44.6624 59.1895C44.9126 59.065 45.1303 58.884 45.2983 58.6608C45.4663 58.4375 45.58 58.1782 45.6304 57.9034C45.6808 57.6286 45.6665 57.3458 45.5886 57.0774L45.3965 57.1332L45.5886 57.0774C45.047 55.2129 44.1157 51.6697 43.933 48.7919C43.884 48.0144 43.9734 47.021 44.2087 46.0499C44.4444 45.0771 44.8222 44.1444 45.3377 43.477L45.3379 43.4769C50.2307 37.1295 51.9507 31.8306 51.036 25.7864C50.9996 25.5435 50.9599 25.3033 50.9169 25.0668L50.9166 25.0654C50.8781 24.8617 50.7607 24.6814 50.5898 24.5638C50.4189 24.4463 50.2085 24.401 50.0044 24.4379C49.8004 24.4749 49.6192 24.5909 49.5003 24.7609C49.3814 24.9308 49.3346 25.1409 49.3699 25.3452L49.3702 25.3471C49.4108 25.5693 49.4479 25.7937 49.4817 26.0203L49.4817 26.0208C50.334 31.6536 48.7899 36.4234 44.0926 42.5177C43.4373 43.3667 42.9766 44.4902 42.6941 45.629C42.4113 46.7689 42.3033 47.9392 42.3638 48.8912C42.557 51.9284 43.5226 55.6033 44.079 57.5158L44.0797 57.518C44.0897 57.551 44.0917 57.5859 44.0855 57.6198C44.0793 57.6537 44.0651 57.6857 44.044 57.713L44.0422 57.7155C44.0209 57.7441 43.9932 57.7673 43.9613 57.7832C43.9294 57.799 43.8941 57.8072 43.8585 57.807H43.8571H27.3571L27.3563 57.807C27.3029 57.8072 27.251 57.7885 27.21 57.7542C27.1691 57.7199 27.1415 57.6722 27.1323 57.6196M43.9384 59.3798L16.9828 50.086M13.1474 45.6362C13.4128 48.5209 13.5749 50.2627 16.9828 50.086M13.1474 45.6362L13.3471 45.6239C13.347 45.6229 13.3469 45.6218 13.3469 45.6208M13.1474 45.6362C13.0751 44.4624 12.8894 43.2984 12.5929 42.1604L13.1474 45.6362ZM16.9828 50.086C17.4773 50.0659 18.0468 50.0059 18.6496 49.9421L16.9828 50.086ZM13.3469 45.6208C13.4133 46.3434 13.4725 46.9821 13.576 47.5366C13.6797 48.0916 13.8252 48.5451 14.0547 48.9006C14.4976 49.5866 15.2993 49.973 16.9724 49.8863L16.9746 49.8862C17.4614 49.8663 18.024 49.8072 18.6286 49.7432L18.6287 49.7432L18.6442 49.7416C19.7314 49.6271 20.9112 49.5029 21.9917 49.5684C23.0762 49.6341 24.0954 49.8924 24.8299 50.5757C25.113 50.8389 25.3645 51.2539 25.5898 51.7495C25.817 52.2491 26.0253 52.8483 26.2147 53.4957C26.5936 54.7909 26.9016 56.296 27.1323 57.6196M13.3469 45.6208C13.2736 44.4352 13.0859 43.2595 12.7865 42.11L12.7865 42.11L12.7855 42.1066C12.5983 41.4358 12.2802 40.8086 11.8497 40.2612C11.4207 39.7156 10.8885 39.2599 10.2834 38.9201M13.3469 45.6208L10.2834 38.9201M27.1323 57.6196L26.9353 57.654L27.1323 57.6195C27.1323 57.6195 27.1323 57.6196 27.1323 57.6196ZM10.2834 38.9201C9.90479 38.6707 9.67458 38.5088 9.53508 38.3304C9.40839 38.1683 9.34862 37.9804 9.36608 37.6484L9.36609 37.648C9.36719 37.6265 9.38129 37.5742 9.43216 37.4841C9.48027 37.3988 9.5505 37.2981 9.63883 37.1846C9.81247 36.9615 10.0408 36.7081 10.2724 36.451L10.2851 36.4369L10.2853 36.4368L10.2959 36.4249C11.4195 35.1799 13.1577 33.254 13.1651 30.1838C13.1651 30.1837 13.1651 30.1835 13.1651 30.1834L12.9651 30.1829M10.2834 38.9201L13.029 27.6745L12.8296 27.6901M12.9651 30.1829C12.9701 29.49 12.9012 28.6064 12.8341 27.7472L12.8296 27.6901M12.9651 30.1829C12.9581 33.1766 11.2642 35.0536 10.1405 36.2986L10.1367 36.3029L12.9651 30.1829ZM12.8296 27.6901L13.029 27.6745M12.8296 27.6901C12.7771 27.0165 12.7274 26.3771 12.711 25.8446C12.5156 19.5118 16.8581 13.9313 23.7796 11.6269L13.029 27.6745M13.029 27.6745C12.9764 26.9995 12.9272 26.3653 12.9109 25.8384C12.7187 19.6114 16.9871 14.1 23.8405 11.8175M13.029 27.6745L23.8405 11.8175M23.8405 11.8175C23.9399 11.7868 24.0322 11.7368 24.1121 11.6702L23.9841 11.5165L24.1121 11.6702C24.1927 11.603 24.2591 11.5204 24.3073 11.4271C24.3554 11.3339 24.3844 11.232 24.3926 11.1273C24.4007 11.0227 24.3878 10.9175 24.3546 10.818C24.3215 10.7184 24.2687 10.6265 24.1994 10.5477C24.1302 10.4688 24.0458 10.4047 23.9514 10.359C23.8569 10.3132 23.7542 10.2869 23.6494 10.2815C23.5456 10.2762 23.4417 10.2915 23.3438 10.3266C15.8544 12.821 11.1251 18.9212 11.3416 25.8874C11.3416 25.8874 11.3416 25.8874 11.3416 25.8874L11.5415 25.8812C11.5588 26.4383 11.6091 27.0872 11.6623 27.7734L11.6629 27.781L11.6632 27.7846C11.7297 28.6371 11.7984 29.5182 11.7951 30.1787L23.8405 11.8175ZM7.79803 37.5661C7.79803 37.566 7.79803 37.566 7.79803 37.566L7.99776 37.5765L7.79803 37.5661ZM7.79803 37.5661C7.75807 38.3283 7.96795 38.8748 8.29795 39.2959C8.61777 39.7041 9.04445 39.9851 9.4159 40.2297L9.42666 40.2368L9.43427 40.2418L9.44232 40.2461C9.88807 40.4846 10.2806 40.8113 10.5961 41.2063C10.9113 41.6009 11.1429 42.0555 11.277 42.5423L7.79803 37.5661ZM21.6538 51.1304C22.5759 51.1589 23.3283 51.326 23.7601 51.7273L11.9826 45.7444C12.2423 48.5696 12.5132 51.4918 17.0385 51.2574L17.0466 51.4573C17.047 51.4572 17.0473 51.4572 17.0477 51.4572C17.5724 51.436 18.1583 51.3743 18.7698 51.3098L18.7939 51.3073C19.7202 51.2097 20.7422 51.1022 21.6538 51.1304Z" fill="#406440" stroke="#406440" stroke-width="0.4"/>
<path d="M15.6176 43.5914H12.1694C11.9743 43.5914 11.7871 43.5139 11.649 43.3759C11.511 43.2378 11.4335 43.0506 11.4335 42.8555C11.4335 42.6603 11.511 42.4731 11.649 42.3351C11.7871 42.1971 11.9743 42.1195 12.1694 42.1195H15.6176C15.8127 42.1195 15.9999 42.1971 16.1379 42.3351C16.276 42.4731 16.3535 42.6603 16.3535 42.8555C16.3535 43.0507 16.276 43.2378 16.1379 43.3759M15.6176 43.5914L16.1379 43.3759M15.6176 43.5914C15.8127 43.5914 15.9999 43.5139 16.1379 43.3759M15.6176 43.5914L16.1379 43.3759" fill="#406440" stroke="#406440" stroke-width="0.3"/>
<mask id="path-3-outside-1_149_1918" maskUnits="userSpaceOnUse" x="23.0718" y="-0.126709" width="30" height="29" fill="black">
<rect fill="white" x="23.0718" y="-0.126709" width="30" height="29"/>
<path d="M34.0934 28.1986H34.0779C33.7311 28.1996 33.3949 28.0788 33.128 27.8573C32.8612 27.6357 32.6806 27.3275 32.6178 26.9864C32.5143 26.4237 32.5297 25.8455 32.663 25.289C32.7963 24.7326 33.0445 24.2101 33.3917 23.7553C31.0418 24.3647 27.6209 24.8667 25.2251 23.5678C25.036 23.4646 24.8718 23.3213 24.744 23.1479C24.6161 22.9745 24.5277 22.7753 24.4849 22.5642C24.4422 22.3531 24.4461 22.1351 24.4963 21.9257C24.5466 21.7162 24.6421 21.5203 24.776 21.3516C26.5385 19.1484 29.8549 18.8813 32.3881 19.0584C29.4106 17.2378 25.1482 14.0278 24.1217 10.0749C24.0635 9.85507 24.0561 9.62495 24.0999 9.40188C24.1438 9.1788 24.2378 8.96862 24.3748 8.7872C24.507 8.61108 24.6776 8.46732 24.8735 8.36679C25.0695 8.26625 25.2857 8.21158 25.5059 8.20689C29.5207 8.13001 33.1587 12.0722 35.322 15.0431C34.467 11.0274 33.8178 4.71048 37.0615 1.31814C37.1972 1.1773 37.36 1.06531 37.54 0.988872C37.72 0.912434 37.9136 0.873122 38.1092 0.873292C38.3049 0.873057 38.4987 0.912381 38.6789 0.988904C38.8591 1.06543 39.022 1.17757 39.1578 1.3186C42.4015 4.71048 41.7523 11.0274 40.8968 15.0431C43.0601 12.0722 46.7028 8.11548 50.7129 8.20689C50.9331 8.21158 51.1493 8.26625 51.3453 8.36679C51.5412 8.46732 51.7118 8.61108 51.844 8.7872C51.9812 8.96854 52.0753 9.17869 52.1193 9.40176C52.1634 9.62484 52.1561 9.855 52.0981 10.0749C51.0715 14.0278 46.8087 17.2383 43.8307 19.0566C46.3648 18.8794 49.6807 19.1447 51.4432 21.3497C51.5772 21.5184 51.6727 21.7144 51.723 21.9239C51.7733 22.1334 51.7772 22.3513 51.7344 22.5625C51.6916 22.7736 51.6031 22.9728 51.4751 23.1462C51.3472 23.3195 51.1829 23.4628 50.9937 23.5659C48.5989 24.8658 45.1774 24.3628 42.8271 23.7558C43.1744 24.2105 43.4227 24.7328 43.556 25.2892C43.6893 25.8456 43.7046 26.4237 43.601 26.9864C43.5376 27.33 43.3548 27.6401 43.0848 27.8619C42.8149 28.0837 42.4752 28.203 42.1259 28.1986C40.2579 28.1986 38.742 25.9955 38.0135 24.9384C37.9859 24.8981 37.9615 24.8658 37.9404 24.8395C37.9193 24.8658 37.8935 24.8981 37.8664 24.9389C37.7581 25.095 37.6474 25.2609 37.5345 25.4302C36.7118 26.6639 35.6871 28.1986 34.0934 28.1986ZM35.8095 21.7767C35.9393 21.7768 36.0654 21.8199 36.1681 21.8994C36.2707 21.9789 36.344 22.0903 36.3765 22.2159C36.409 22.3416 36.3989 22.4745 36.3477 22.5938C36.2964 22.7131 36.2071 22.812 36.0935 22.875C36.0668 22.8895 33.3279 24.435 33.7718 26.7656C33.7845 26.8399 33.8235 26.907 33.8817 26.9547C33.9399 27.0024 34.0134 27.0275 34.0887 27.0253H34.0957C35.0628 27.0253 35.8596 25.8314 36.5632 24.7777C36.6804 24.6024 36.7948 24.4313 36.9068 24.2691C37.0138 24.0819 37.1635 23.9227 37.3438 23.8045C37.5241 23.6862 37.7298 23.6124 37.9442 23.5889C38.1586 23.6128 38.3643 23.6871 38.5444 23.806C38.7245 23.9248 38.8738 24.0846 38.9801 24.2724C39.5473 25.0959 40.8753 27.0249 42.1278 27.0253C42.2041 27.0288 42.279 27.0043 42.3386 26.9565C42.3982 26.9087 42.4384 26.8409 42.4517 26.7656C42.897 24.4345 40.1548 22.8891 40.1285 22.875C39.9975 22.8029 39.8991 22.6834 39.8533 22.541C39.8076 22.3986 39.818 22.2441 39.8825 22.1091C39.947 21.9742 40.0606 21.869 40.2001 21.8151C40.3396 21.7613 40.4945 21.7628 40.6329 21.8194C40.6962 21.8456 47.0224 24.39 50.4364 22.5361C50.4753 22.5148 50.5091 22.4851 50.5353 22.4492C50.5615 22.4133 50.5794 22.3721 50.5878 22.3284C50.597 22.2855 50.5965 22.241 50.5865 22.1982C50.5764 22.1554 50.557 22.1153 50.5296 22.0809C47.9698 18.8789 40.8171 20.6995 40.7449 20.7178C40.6034 20.7544 40.4533 20.7367 40.3242 20.6682C40.195 20.5998 40.0961 20.4856 40.0468 20.3479C39.9976 20.2103 40.0015 20.0593 40.0579 19.9244C40.1143 19.7896 40.2191 19.6806 40.3517 19.6191C40.4454 19.5769 49.5218 15.3389 50.9656 9.78001C50.9787 9.73123 50.9806 9.68011 50.9711 9.6305C50.9616 9.58089 50.9409 9.53408 50.9107 9.4936C50.885 9.45856 50.8515 9.42995 50.8129 9.41002C50.7743 9.3901 50.7315 9.3794 50.6881 9.37876C50.651 9.37876 50.6135 9.37876 50.5765 9.37876C45.0645 9.37876 39.9317 18.6924 39.8801 18.787C39.8098 18.9157 39.6939 19.0133 39.5551 19.0607C39.4164 19.108 39.2649 19.1016 39.1306 19.0427C38.9964 18.9839 38.8891 18.8768 38.8299 18.7427C38.7707 18.6086 38.7639 18.4572 38.8109 18.3183C38.8503 18.203 42.7123 6.73126 38.3121 2.13095C38.2586 2.07799 38.1863 2.04829 38.111 2.04829C38.0357 2.04829 37.9635 2.07799 37.9099 2.13095C33.5098 6.73173 37.3714 18.2034 37.4112 18.3188C37.4582 18.4576 37.4514 18.6091 37.3922 18.7432C37.333 18.8773 37.2257 18.9844 37.0914 19.0432C36.9572 19.1021 36.8057 19.1085 36.667 19.0611C36.5282 19.0138 36.4123 18.9162 36.342 18.7875C36.2899 18.6938 31.0765 9.25173 25.534 9.38064C25.4905 9.38101 25.4477 9.3916 25.409 9.41155C25.3703 9.4315 25.3369 9.46025 25.3114 9.49548C25.281 9.53591 25.2603 9.58272 25.2508 9.63235C25.2413 9.68198 25.2433 9.73312 25.2565 9.78189C26.7012 15.3464 35.7785 19.5788 35.8699 19.6209C36.0036 19.6817 36.1095 19.7905 36.1667 19.9257C36.224 20.0609 36.2283 20.2127 36.1789 20.351C36.1294 20.4892 36.0299 20.6039 35.8999 20.6722C35.7699 20.7405 35.619 20.7574 35.4771 20.7197C35.4054 20.7019 28.2523 18.8813 25.6925 22.0828C25.6653 22.1177 25.646 22.158 25.6359 22.201C25.6259 22.2441 25.6253 22.2888 25.6342 22.3321C25.6431 22.3753 25.6613 22.4162 25.6876 22.4517C25.7138 22.4873 25.7475 22.5167 25.7862 22.538C29.2039 24.3942 35.5254 21.8475 35.5887 21.8213C35.6586 21.7918 35.7336 21.7763 35.8095 21.7758V21.7767Z"/>
</mask>
<path d="M34.0934 28.1986H34.0779C33.7311 28.1996 33.3949 28.0788 33.128 27.8573C32.8612 27.6357 32.6806 27.3275 32.6178 26.9864C32.5143 26.4237 32.5297 25.8455 32.663 25.289C32.7963 24.7326 33.0445 24.2101 33.3917 23.7553C31.0418 24.3647 27.6209 24.8667 25.2251 23.5678C25.036 23.4646 24.8718 23.3213 24.744 23.1479C24.6161 22.9745 24.5277 22.7753 24.4849 22.5642C24.4422 22.3531 24.4461 22.1351 24.4963 21.9257C24.5466 21.7162 24.6421 21.5203 24.776 21.3516C26.5385 19.1484 29.8549 18.8813 32.3881 19.0584C29.4106 17.2378 25.1482 14.0278 24.1217 10.0749C24.0635 9.85507 24.0561 9.62495 24.0999 9.40188C24.1438 9.1788 24.2378 8.96862 24.3748 8.7872C24.507 8.61108 24.6776 8.46732 24.8735 8.36679C25.0695 8.26625 25.2857 8.21158 25.5059 8.20689C29.5207 8.13001 33.1587 12.0722 35.322 15.0431C34.467 11.0274 33.8178 4.71048 37.0615 1.31814C37.1972 1.1773 37.36 1.06531 37.54 0.988872C37.72 0.912434 37.9136 0.873122 38.1092 0.873292C38.3049 0.873057 38.4987 0.912381 38.6789 0.988904C38.8591 1.06543 39.022 1.17757 39.1578 1.3186C42.4015 4.71048 41.7523 11.0274 40.8968 15.0431C43.0601 12.0722 46.7028 8.11548 50.7129 8.20689C50.9331 8.21158 51.1493 8.26625 51.3453 8.36679C51.5412 8.46732 51.7118 8.61108 51.844 8.7872C51.9812 8.96854 52.0753 9.17869 52.1193 9.40176C52.1634 9.62484 52.1561 9.855 52.0981 10.0749C51.0715 14.0278 46.8087 17.2383 43.8307 19.0566C46.3648 18.8794 49.6807 19.1447 51.4432 21.3497C51.5772 21.5184 51.6727 21.7144 51.723 21.9239C51.7733 22.1334 51.7772 22.3513 51.7344 22.5625C51.6916 22.7736 51.6031 22.9728 51.4751 23.1462C51.3472 23.3195 51.1829 23.4628 50.9937 23.5659C48.5989 24.8658 45.1774 24.3628 42.8271 23.7558C43.1744 24.2105 43.4227 24.7328 43.556 25.2892C43.6893 25.8456 43.7046 26.4237 43.601 26.9864C43.5376 27.33 43.3548 27.6401 43.0848 27.8619C42.8149 28.0837 42.4752 28.203 42.1259 28.1986C40.2579 28.1986 38.742 25.9955 38.0135 24.9384C37.9859 24.8981 37.9615 24.8658 37.9404 24.8395C37.9193 24.8658 37.8935 24.8981 37.8664 24.9389C37.7581 25.095 37.6474 25.2609 37.5345 25.4302C36.7118 26.6639 35.6871 28.1986 34.0934 28.1986ZM35.8095 21.7767C35.9393 21.7768 36.0654 21.8199 36.1681 21.8994C36.2707 21.9789 36.344 22.0903 36.3765 22.2159C36.409 22.3416 36.3989 22.4745 36.3477 22.5938C36.2964 22.7131 36.2071 22.812 36.0935 22.875C36.0668 22.8895 33.3279 24.435 33.7718 26.7656C33.7845 26.8399 33.8235 26.907 33.8817 26.9547C33.9399 27.0024 34.0134 27.0275 34.0887 27.0253H34.0957C35.0628 27.0253 35.8596 25.8314 36.5632 24.7777C36.6804 24.6024 36.7948 24.4313 36.9068 24.2691C37.0138 24.0819 37.1635 23.9227 37.3438 23.8045C37.5241 23.6862 37.7298 23.6124 37.9442 23.5889C38.1586 23.6128 38.3643 23.6871 38.5444 23.806C38.7245 23.9248 38.8738 24.0846 38.9801 24.2724C39.5473 25.0959 40.8753 27.0249 42.1278 27.0253C42.2041 27.0288 42.279 27.0043 42.3386 26.9565C42.3982 26.9087 42.4384 26.8409 42.4517 26.7656C42.897 24.4345 40.1548 22.8891 40.1285 22.875C39.9975 22.8029 39.8991 22.6834 39.8533 22.541C39.8076 22.3986 39.818 22.2441 39.8825 22.1091C39.947 21.9742 40.0606 21.869 40.2001 21.8151C40.3396 21.7613 40.4945 21.7628 40.6329 21.8194C40.6962 21.8456 47.0224 24.39 50.4364 22.5361C50.4753 22.5148 50.5091 22.4851 50.5353 22.4492C50.5615 22.4133 50.5794 22.3721 50.5878 22.3284C50.597 22.2855 50.5965 22.241 50.5865 22.1982C50.5764 22.1554 50.557 22.1153 50.5296 22.0809C47.9698 18.8789 40.8171 20.6995 40.7449 20.7178C40.6034 20.7544 40.4533 20.7367 40.3242 20.6682C40.195 20.5998 40.0961 20.4856 40.0468 20.3479C39.9976 20.2103 40.0015 20.0593 40.0579 19.9244C40.1143 19.7896 40.2191 19.6806 40.3517 19.6191C40.4454 19.5769 49.5218 15.3389 50.9656 9.78001C50.9787 9.73123 50.9806 9.68011 50.9711 9.6305C50.9616 9.58089 50.9409 9.53408 50.9107 9.4936C50.885 9.45856 50.8515 9.42995 50.8129 9.41002C50.7743 9.3901 50.7315 9.3794 50.6881 9.37876C50.651 9.37876 50.6135 9.37876 50.5765 9.37876C45.0645 9.37876 39.9317 18.6924 39.8801 18.787C39.8098 18.9157 39.6939 19.0133 39.5551 19.0607C39.4164 19.108 39.2649 19.1016 39.1306 19.0427C38.9964 18.9839 38.8891 18.8768 38.8299 18.7427C38.7707 18.6086 38.7639 18.4572 38.8109 18.3183C38.8503 18.203 42.7123 6.73126 38.3121 2.13095C38.2586 2.07799 38.1863 2.04829 38.111 2.04829C38.0357 2.04829 37.9635 2.07799 37.9099 2.13095C33.5098 6.73173 37.3714 18.2034 37.4112 18.3188C37.4582 18.4576 37.4514 18.6091 37.3922 18.7432C37.333 18.8773 37.2257 18.9844 37.0914 19.0432C36.9572 19.1021 36.8057 19.1085 36.667 19.0611C36.5282 19.0138 36.4123 18.9162 36.342 18.7875C36.2899 18.6938 31.0765 9.25173 25.534 9.38064C25.4905 9.38101 25.4477 9.3916 25.409 9.41155C25.3703 9.4315 25.3369 9.46025 25.3114 9.49548C25.281 9.53591 25.2603 9.58272 25.2508 9.63235C25.2413 9.68198 25.2433 9.73312 25.2565 9.78189C26.7012 15.3464 35.7785 19.5788 35.8699 19.6209C36.0036 19.6817 36.1095 19.7905 36.1667 19.9257C36.224 20.0609 36.2283 20.2127 36.1789 20.351C36.1294 20.4892 36.0299 20.6039 35.8999 20.6722C35.7699 20.7405 35.619 20.7574 35.4771 20.7197C35.4054 20.7019 28.2523 18.8813 25.6925 22.0828C25.6653 22.1177 25.646 22.158 25.6359 22.201C25.6259 22.2441 25.6253 22.2888 25.6342 22.3321C25.6431 22.3753 25.6613 22.4162 25.6876 22.4517C25.7138 22.4873 25.7475 22.5167 25.7862 22.538C29.2039 24.3942 35.5254 21.8475 35.5887 21.8213C35.6586 21.7918 35.7336 21.7763 35.8095 21.7758V21.7767Z" fill="#406440"/>
<path d="M34.0934 28.1986H34.0779C33.7311 28.1996 33.3949 28.0788 33.128 27.8573C32.8612 27.6357 32.6806 27.3275 32.6178 26.9864C32.5143 26.4237 32.5297 25.8455 32.663 25.289C32.7963 24.7326 33.0445 24.2101 33.3917 23.7553C31.0418 24.3647 27.6209 24.8667 25.2251 23.5678C25.036 23.4646 24.8718 23.3213 24.744 23.1479C24.6161 22.9745 24.5277 22.7753 24.4849 22.5642C24.4422 22.3531 24.4461 22.1351 24.4963 21.9257C24.5466 21.7162 24.6421 21.5203 24.776 21.3516C26.5385 19.1484 29.8549 18.8813 32.3881 19.0584C29.4106 17.2378 25.1482 14.0278 24.1217 10.0749C24.0635 9.85507 24.0561 9.62495 24.0999 9.40188C24.1438 9.1788 24.2378 8.96862 24.3748 8.7872C24.507 8.61108 24.6776 8.46732 24.8735 8.36679C25.0695 8.26625 25.2857 8.21158 25.5059 8.20689C29.5207 8.13001 33.1587 12.0722 35.322 15.0431C34.467 11.0274 33.8178 4.71048 37.0615 1.31814C37.1972 1.1773 37.36 1.06531 37.54 0.988872C37.72 0.912434 37.9136 0.873122 38.1092 0.873292C38.3049 0.873057 38.4987 0.912381 38.6789 0.988904C38.8591 1.06543 39.022 1.17757 39.1578 1.3186C42.4015 4.71048 41.7523 11.0274 40.8968 15.0431C43.0601 12.0722 46.7028 8.11548 50.7129 8.20689C50.9331 8.21158 51.1493 8.26625 51.3453 8.36679C51.5412 8.46732 51.7118 8.61108 51.844 8.7872C51.9812 8.96854 52.0753 9.17869 52.1193 9.40176C52.1634 9.62484 52.1561 9.855 52.0981 10.0749C51.0715 14.0278 46.8087 17.2383 43.8307 19.0566C46.3648 18.8794 49.6807 19.1447 51.4432 21.3497C51.5772 21.5184 51.6727 21.7144 51.723 21.9239C51.7733 22.1334 51.7772 22.3513 51.7344 22.5625C51.6916 22.7736 51.6031 22.9728 51.4751 23.1462C51.3472 23.3195 51.1829 23.4628 50.9937 23.5659C48.5989 24.8658 45.1774 24.3628 42.8271 23.7558C43.1744 24.2105 43.4227 24.7328 43.556 25.2892C43.6893 25.8456 43.7046 26.4237 43.601 26.9864C43.5376 27.33 43.3548 27.6401 43.0848 27.8619C42.8149 28.0837 42.4752 28.203 42.1259 28.1986C40.2579 28.1986 38.742 25.9955 38.0135 24.9384C37.9859 24.8981 37.9615 24.8658 37.9404 24.8395C37.9193 24.8658 37.8935 24.8981 37.8664 24.9389C37.7581 25.095 37.6474 25.2609 37.5345 25.4302C36.7118 26.6639 35.6871 28.1986 34.0934 28.1986ZM35.8095 21.7767C35.9393 21.7768 36.0654 21.8199 36.1681 21.8994C36.2707 21.9789 36.344 22.0903 36.3765 22.2159C36.409 22.3416 36.3989 22.4745 36.3477 22.5938C36.2964 22.7131 36.2071 22.812 36.0935 22.875C36.0668 22.8895 33.3279 24.435 33.7718 26.7656C33.7845 26.8399 33.8235 26.907 33.8817 26.9547C33.9399 27.0024 34.0134 27.0275 34.0887 27.0253H34.0957C35.0628 27.0253 35.8596 25.8314 36.5632 24.7777C36.6804 24.6024 36.7948 24.4313 36.9068 24.2691C37.0138 24.0819 37.1635 23.9227 37.3438 23.8045C37.5241 23.6862 37.7298 23.6124 37.9442 23.5889C38.1586 23.6128 38.3643 23.6871 38.5444 23.806C38.7245 23.9248 38.8738 24.0846 38.9801 24.2724C39.5473 25.0959 40.8753 27.0249 42.1278 27.0253C42.2041 27.0288 42.279 27.0043 42.3386 26.9565C42.3982 26.9087 42.4384 26.8409 42.4517 26.7656C42.897 24.4345 40.1548 22.8891 40.1285 22.875C39.9975 22.8029 39.8991 22.6834 39.8533 22.541C39.8076 22.3986 39.818 22.2441 39.8825 22.1091C39.947 21.9742 40.0606 21.869 40.2001 21.8151C40.3396 21.7613 40.4945 21.7628 40.6329 21.8194C40.6962 21.8456 47.0224 24.39 50.4364 22.5361C50.4753 22.5148 50.5091 22.4851 50.5353 22.4492C50.5615 22.4133 50.5794 22.3721 50.5878 22.3284C50.597 22.2855 50.5965 22.241 50.5865 22.1982C50.5764 22.1554 50.557 22.1153 50.5296 22.0809C47.9698 18.8789 40.8171 20.6995 40.7449 20.7178C40.6034 20.7544 40.4533 20.7367 40.3242 20.6682C40.195 20.5998 40.0961 20.4856 40.0468 20.3479C39.9976 20.2103 40.0015 20.0593 40.0579 19.9244C40.1143 19.7896 40.2191 19.6806 40.3517 19.6191C40.4454 19.5769 49.5218 15.3389 50.9656 9.78001C50.9787 9.73123 50.9806 9.68011 50.9711 9.6305C50.9616 9.58089 50.9409 9.53408 50.9107 9.4936C50.885 9.45856 50.8515 9.42995 50.8129 9.41002C50.7743 9.3901 50.7315 9.3794 50.6881 9.37876C50.651 9.37876 50.6135 9.37876 50.5765 9.37876C45.0645 9.37876 39.9317 18.6924 39.8801 18.787C39.8098 18.9157 39.6939 19.0133 39.5551 19.0607C39.4164 19.108 39.2649 19.1016 39.1306 19.0427C38.9964 18.9839 38.8891 18.8768 38.8299 18.7427C38.7707 18.6086 38.7639 18.4572 38.8109 18.3183C38.8503 18.203 42.7123 6.73126 38.3121 2.13095C38.2586 2.07799 38.1863 2.04829 38.111 2.04829C38.0357 2.04829 37.9635 2.07799 37.9099 2.13095C33.5098 6.73173 37.3714 18.2034 37.4112 18.3188C37.4582 18.4576 37.4514 18.6091 37.3922 18.7432C37.333 18.8773 37.2257 18.9844 37.0914 19.0432C36.9572 19.1021 36.8057 19.1085 36.667 19.0611C36.5282 19.0138 36.4123 18.9162 36.342 18.7875C36.2899 18.6938 31.0765 9.25173 25.534 9.38064C25.4905 9.38101 25.4477 9.3916 25.409 9.41155C25.3703 9.4315 25.3369 9.46025 25.3114 9.49548C25.281 9.53591 25.2603 9.58272 25.2508 9.63235C25.2413 9.68198 25.2433 9.73312 25.2565 9.78189C26.7012 15.3464 35.7785 19.5788 35.8699 19.6209C36.0036 19.6817 36.1095 19.7905 36.1667 19.9257C36.224 20.0609 36.2283 20.2127 36.1789 20.351C36.1294 20.4892 36.0299 20.6039 35.8999 20.6722C35.7699 20.7405 35.619 20.7574 35.4771 20.7197C35.4054 20.7019 28.2523 18.8813 25.6925 22.0828C25.6653 22.1177 25.646 22.158 25.6359 22.201C25.6259 22.2441 25.6253 22.2888 25.6342 22.3321C25.6431 22.3753 25.6613 22.4162 25.6876 22.4517C25.7138 22.4873 25.7475 22.5167 25.7862 22.538C29.2039 24.3942 35.5254 21.8475 35.5887 21.8213C35.6586 21.7918 35.7336 21.7763 35.8095 21.7758V21.7767Z" stroke="#406440" stroke-width="0.6" mask="url(#path-3-outside-1_149_1918)"/>
<path d="M38.6807 24.2423L38.6807 24.2425C38.6284 24.8291 38.6158 25.9269 38.8027 26.9623C38.8961 27.4799 39.0382 27.9751 39.2458 28.3813C39.4534 28.7877 39.7207 29.0938 40.0591 29.253L40.0591 29.253C40.2105 29.3242 40.3331 29.4449 40.4067 29.5952C40.4802 29.7455 40.5004 29.9163 40.4639 30.0796C40.4273 30.2429 40.3362 30.3888 40.2056 30.4934C40.075 30.598 39.9126 30.6549 39.7453 30.6548M38.6807 24.2423L39.7435 30.6548H39.7453M38.6807 24.2423C38.6892 24.146 38.6786 24.0489 38.6496 23.9566C38.6205 23.8643 38.5736 23.7787 38.5115 23.7046C38.4493 23.6304 38.3731 23.5693 38.2874 23.5246C38.2019 23.4801 38.1085 23.4528 38.0125 23.4442C37.9162 23.4346 37.819 23.4442 37.7265 23.4725C37.6336 23.5009 37.5474 23.5475 37.4728 23.6097C37.3982 23.6718 37.3368 23.7483 37.2921 23.8345C37.2476 23.9204 37.2206 24.0144 37.2128 24.1109C37.1886 24.3786 37.0904 25.6768 37.3169 27.0617C37.542 28.4373 38.0975 29.9575 39.4306 30.5847M38.6807 24.2423L39.7435 30.6548C39.6353 30.6548 39.5285 30.6309 39.4306 30.5847M39.7453 30.6548L39.7454 30.5048V30.6548H39.7453ZM39.4306 30.5847C39.4306 30.5847 39.4306 30.5847 39.4305 30.5847L39.4946 30.449L39.4307 30.5847C39.4307 30.5847 39.4307 30.5847 39.4306 30.5847Z" fill="#406440" stroke="#406440" stroke-width="0.3"/>
</svg>
