<svg width="36" height="36" viewBox="0 0 36 36" fill="none" xmlns="http://www.w3.org/2000/svg">
<circle opacity="0.1" cx="18" cy="18" r="18" fill="#406440"/>
<path d="M17.9999 14.75C16.205 14.75 14.7499 16.2051 14.7499 18C14.7499 19.795 16.205 21.25 17.9999 21.25C19.7949 21.25 21.2499 19.795 21.2499 18C21.2499 16.2051 19.7949 14.75 17.9999 14.75Z" fill="#406440"/>
<path fill-rule="evenodd" clip-rule="evenodd" d="M12.7695 9.08151C16.2176 8.69614 19.7823 8.69614 23.2304 9.08151C25.1288 9.29369 26.66 10.7895 26.8828 12.6945C27.2951 16.2195 27.2951 19.7806 26.8828 23.3056C26.66 25.2106 25.1288 26.7064 23.2304 26.9186C19.7823 27.304 16.2176 27.304 12.7695 26.9186C10.8711 26.7064 9.33989 25.2106 9.11707 23.3056C8.70479 19.7806 8.70479 16.2195 9.11707 12.6945C9.33989 10.7895 10.8711 9.29369 12.7695 9.08151ZM22.9999 12C22.4477 12 21.9999 12.4478 21.9999 13C21.9999 13.5523 22.4477 14 22.9999 14C23.5522 14 23.9999 13.5523 23.9999 13C23.9999 12.4478 23.5522 12 22.9999 12ZM13.2499 18C13.2499 15.3767 15.3766 13.25 17.9999 13.25C20.6233 13.25 22.7499 15.3767 22.7499 18C22.7499 20.6234 20.6233 22.75 17.9999 22.75C15.3766 22.75 13.2499 20.6234 13.2499 18Z" fill="#406440"/>
</svg>
