<svg width="80" height="44" viewBox="0 0 80 44" fill="none" xmlns="http://www.w3.org/2000/svg">
<path d="M7.39835 36.3396C6.98569 35.8917 6.54552 35.5616 6.07784 35.3495C5.61017 35.1334 5.09336 35.0253 4.52743 35.0253C4.07155 35.0253 3.62548 35.1177 3.18925 35.3023C2.75694 35.487 2.38162 35.7443 2.06328 36.0744C1.73316 36.4162 1.48556 36.7993 1.3205 37.2236C1.15544 37.644 1.07291 38.1096 1.07291 38.6203C1.07291 39.0211 1.12203 39.3904 1.22029 39.7283C1.31854 40.0662 1.46591 40.3765 1.66242 40.6594C2.00826 41.1505 2.43271 41.5297 2.93576 41.7969C3.44274 42.0601 3.98902 42.1917 4.57459 42.1917C5.1248 42.1917 5.63571 42.0778 6.10732 41.8499C6.57893 41.622 7.00927 41.2822 7.39835 40.8303V42.1917C6.96997 42.5021 6.50819 42.7378 6.013 42.8989C5.52174 43.0561 5.0128 43.1347 4.48617 43.1347C4.03028 43.1347 3.58618 43.0659 3.15388 42.9284C2.72157 42.7948 2.31677 42.5984 1.93949 42.339C1.31068 41.9029 0.829244 41.3666 0.495188 40.7301C0.165063 40.0937 0 39.3943 0 38.6321C0 37.9681 0.110042 37.365 0.330125 36.8228C0.554139 36.2767 0.89409 35.7817 1.34998 35.3377C1.79014 34.9134 2.27747 34.5971 2.81196 34.3889C3.34645 34.1767 3.93006 34.0706 4.5628 34.0706C5.06192 34.0706 5.54532 34.1472 6.013 34.3004C6.48068 34.4497 6.94246 34.6835 7.39835 35.0018V36.3396Z" fill="white"/>
<path d="M13.6955 36.204L12.3219 39.3806H15.069L13.6955 36.204ZM13.6955 33.9351L17.6216 42.9048H16.5075L15.3874 40.2587H12.0154L10.8953 42.9048H9.78114L13.6955 33.9351Z" fill="white"/>
<path d="M20.3228 42.9048V33.9351L26.6364 40.8303V34.2769H27.615V43.2407L21.3013 36.4221V42.9048H20.3228Z" fill="white"/>
<path d="M31.4951 42.9048V33.9351L37.8088 40.8303V34.2769H38.7874V43.2407L32.4737 36.4221V42.9048H31.4951Z" fill="white"/>
<path d="M45.397 36.204L44.0234 39.3806H46.7705L45.397 36.204ZM45.397 33.9351L49.3231 42.9048H48.2089L47.0889 40.2587H43.7169L42.5968 42.9048H41.4826L45.397 33.9351Z" fill="white"/>
<path d="M52.0242 42.9048V34.2769H53.05V41.9265H56.31V42.9048H52.0242Z" fill="white"/>
<path d="M59.353 42.9048V34.2769H60.3788V42.9048H59.353Z" fill="white"/>
<path d="M64.2766 42.9048V33.9351L70.5902 40.8303V34.2769H71.5688V43.2407L65.2552 36.4221V42.9048H64.2766Z" fill="white"/>
<path d="M75.449 42.9048V34.2769H80V35.2139H76.4747V37.6892H80V38.6439H76.4747V41.9501H80V42.9048H75.449Z" fill="white"/>
<path fill-rule="evenodd" clip-rule="evenodd" d="M40.1007 0L40.3322 0.390753C41.5149 2.38657 42.6747 5.99495 42.9637 10.4328C43.1131 12.726 43.0304 15.2458 42.5961 17.8853C43.1117 16.704 43.6797 15.5323 44.2894 14.4078C46.249 10.7942 48.6685 7.61639 51.2119 6.21427L51.6997 5.94535L51.6357 6.4987C51.0393 11.6503 49.1389 15.9741 46.9465 19.2583C46.5879 19.7954 46.2212 20.3051 45.8509 20.7864C46.534 20.3007 47.2346 19.8356 47.9415 19.4019C50.8408 17.6231 53.8979 16.341 56.3141 16.3888L56.8711 16.3998L56.5389 16.847C53.9763 20.2971 50.821 22.6127 47.8868 24.0612C47.3857 24.3086 46.8905 24.5309 46.4054 24.7294C46.8015 24.7009 47.1975 24.681 47.5904 24.6705C50.0602 24.6046 52.4654 24.9071 53.9864 25.8259L54.4632 26.1139L53.952 26.3351C51.0775 27.5788 48.2424 27.8904 45.8629 27.7354C43.4892 27.5808 41.5499 26.9604 40.4668 26.3186L40.1172 26.1114C40.0961 26.1148 40.0746 26.1173 40.0527 26.1189L40.0533 26.1214L40.0492 26.1191C40.033 26.1202 40.0166 26.1207 40 26.1207C39.9721 26.1207 39.9448 26.1192 39.9181 26.1162L39.9088 26.1214L39.9102 26.1153C39.8911 26.113 39.8723 26.1099 39.8539 26.1061L39.4954 26.3186C38.4123 26.9604 36.4729 27.5808 34.0993 27.7354C31.7197 27.8904 28.8846 27.5788 26.0102 26.3351L25.4989 26.1139L25.9757 25.8259C27.4968 24.9071 29.9019 24.6046 32.3718 24.6705C32.7646 24.681 33.1606 24.7009 33.5567 24.7294C33.0716 24.5309 32.5765 24.3086 32.0754 24.0612C29.1412 22.6127 25.9858 20.2971 23.4232 16.847L23.0911 16.3998L23.648 16.3888C26.0643 16.341 29.1214 17.6231 32.0206 19.4019C32.7276 19.8356 33.4282 20.3007 34.1113 20.7864C33.7409 20.3051 33.3742 19.7954 33.0157 19.2583C30.8232 15.9741 28.9229 11.6503 28.3265 6.4987L28.2624 5.94535L28.7503 6.21427C31.2937 7.61639 33.7131 10.7942 35.6727 14.4078C36.3343 15.6279 36.9467 16.9037 37.4964 18.1869C37.2474 16.5735 37.1025 14.8689 37.0718 13.1617C36.9851 8.34089 37.8071 3.40818 39.8471 0.376829L40.1007 0ZM41.7502 21.6346C41.5814 22.2198 41.3938 22.8081 41.1864 23.3987C41.1669 23.4647 41.1477 23.5305 41.1287 23.5961L50.5043 7.35711C48.4566 8.88633 46.4746 11.5826 44.7942 14.6815C43.5842 16.9128 42.5414 19.3325 41.7502 21.6346ZM38.6214 22.888C38.5235 22.6051 38.4299 22.3138 38.3407 22.0149C37.5354 19.6003 36.4448 17.036 35.168 14.6815C33.4875 11.5826 31.5056 8.88633 29.4578 7.35711L38.8334 23.5961C38.7658 23.3623 38.6951 23.1261 38.6214 22.888ZM42.3908 10.4701C42.6055 13.7673 42.3318 17.541 41.2024 21.462C40.9979 22.0579 40.8099 22.6462 40.6399 23.2219C40.5542 23.4655 40.465 23.7095 40.3723 23.9538V1.70769C41.3051 3.72115 42.1513 6.79251 42.3908 10.4701ZM39.7982 24.2739C39.5722 23.7939 39.3617 23.2707 39.1679 22.7117C39.0787 22.4237 38.9853 22.1331 38.8877 21.8404C38.1427 19.3404 37.7019 16.2663 37.6459 13.1514C37.5681 8.82542 38.2339 4.49502 39.7982 1.57338V24.2739ZM36.9151 25.7845C36.7245 25.7436 36.5295 25.6983 36.3307 25.6483C35.0523 25.4254 33.6861 25.28 32.3565 25.2445C30.5297 25.1957 28.8052 25.3554 27.4771 25.7845L36.9151 25.7845ZM36.4504 25.0864C35.21 24.7732 33.8004 24.2725 32.3295 23.5463C29.8115 22.3033 27.1268 20.4061 24.8154 17.678L38.2404 25.429C38.1331 25.4158 38.0232 25.4007 37.9111 25.3838C37.4419 25.2741 36.9526 25.1743 36.4504 25.0864ZM24.8703 17.0467L37.3261 24.2381C36.8617 23.8353 36.3819 23.3789 35.8965 22.8713C34.5991 21.8092 33.1736 20.7828 31.7204 19.8913C29.334 18.4272 26.9081 17.3483 24.8703 17.0467ZM33.4932 18.9395C34.4006 20.2987 35.3572 21.4735 36.2875 22.4493C37.1474 23.1546 37.9521 23.8757 38.6734 24.585C38.7128 24.6141 38.752 24.6427 38.7909 24.6708L29.1046 7.89364C29.8492 12.3027 31.5546 16.0356 33.4932 18.9395ZM38.0516 26.3587L27.6905 26.3587C29.9632 27.1024 32.1625 27.2862 34.062 27.1625C35.6557 27.0587 37.0292 26.7391 38.0516 26.3587ZM43.047 25.7845C43.2377 25.7436 43.4326 25.6983 43.6315 25.6483C44.9099 25.4254 46.276 25.28 47.6057 25.2445C49.4325 25.1957 51.1569 25.3554 52.4851 25.7845L43.047 25.7845ZM43.5117 25.0864C44.7522 24.7732 46.1617 24.2725 47.6326 23.5463C50.1506 22.3033 52.8353 20.4061 55.1467 17.678L41.7217 25.429C41.8291 25.4158 41.9389 25.4007 42.051 25.3838C42.5203 25.2741 43.0095 25.1743 43.5117 25.0864ZM55.0919 17.0467L42.6361 24.2381C43.1005 23.8353 43.5803 23.3789 44.0657 22.8713C45.363 21.8092 46.7885 20.7828 48.2418 19.8913C50.6281 18.4272 53.054 17.3483 55.0919 17.0467ZM46.4689 18.9395C45.5615 20.2987 44.605 21.4735 43.6747 22.4493C42.8148 23.1546 42.0101 23.8757 41.2887 24.585C41.2494 24.6141 41.2102 24.6427 41.1712 24.6708L50.8575 7.89364C50.1129 12.3027 48.4075 16.0356 46.4689 18.9395ZM41.9105 26.3587L52.2717 26.3587C49.9989 27.1024 47.7996 27.2862 45.9002 27.1625C44.3065 27.0587 42.933 26.7391 41.9105 26.3587Z" fill="white"/>
</svg>
