<svg width="212" height="20" viewBox="0 0 212 20" fill="none" xmlns="http://www.w3.org/2000/svg">
<path fill="#9AAC9A" fill-rule="evenodd" clip-rule="evenodd" d="M78.6338 7.99029C77.338 8.31403 76.0497 8.65653 74.7687 9.01918C74.3024 9.15102 74.0132 9.67341 74.1214 10.1854L74.1272 10.2055C67.2061 10.4321 60.2858 10.7318 53.3681 11.1063C43.3749 11.6478 33.3159 12.4521 23.351 13.6248C13.5032 14.7836 10.7828 15.0842 2.30233 16.9136C2.05981 16.9658 1.59288 16.9691 1.34092 17.0502C1.10132 17.1272 0.929092 17.2581 0.818078 17.3855C0.675895 17.5469 0.593247 17.7317 0.557067 17.9332C0.518728 18.1528 0.52699 18.4204 0.694199 18.7171C1.16595 19.5499 1.93929 19.7697 2.88683 19.5798C3.70211 19.4163 4.69112 18.8628 5.46263 18.7906C18.3061 17.5897 31.1419 16.2772 43.9865 15.0969C63.6501 13.29 83.2465 12.297 102.843 11.5956C123.439 11.5137 144.019 12.0559 164.558 13.1746C177.935 13.9026 191.279 15.0727 204.636 16.0732C204.626 16.1384 204.623 16.2063 204.625 16.2755C204.649 16.8026 205.058 17.199 205.536 17.1604C206.019 17.1212 210.336 16.9262 211.134 16.6986C211.59 16.5681 211.771 16.2547 211.832 16.1207C211.996 15.7534 212.009 15.3565 211.655 14.9828C211.585 14.9112 211.454 14.793 211.213 14.7197C211.006 14.6553 210.494 14.5774 209.562 14.512C194.602 13.4469 179.663 12.0779 164.684 11.261C157.996 10.8978 151.304 10.594 144.606 10.355C153.702 10.0997 162.803 9.82657 171.918 9.48441C172.31 9.47094 172.502 9.39785 172.537 9.38074C173.039 9.13502 173.078 8.69756 173.071 8.45005C173.069 8.36169 173.009 7.63308 172.276 7.54073C171.847 7.48641 168.744 7.41199 167.55 7.35842C161.815 7.09524 161.948 7.14721 156.081 6.93264C143.177 6.46268 130.291 6.20934 117.369 6.03904C112.217 5.97137 107.065 5.93078 101.912 5.92C116.78 4.31788 131.941 4.16649 146.392 3.79567C153.846 3.60457 161.302 3.46472 168.755 3.46852C172.093 3.47034 175.429 3.53406 178.767 3.55432C179.803 3.56049 180.837 3.59352 181.873 3.60656C181.996 3.60796 183.603 3.60048 183.866 3.5905C184.557 3.56441 184.723 2.88259 184.729 2.85528C184.76 2.72698 184.883 1.81095 184.026 1.68165C171.652 -0.186795 158.655 0.469576 146.14 0.309696C124.236 0.0297697 102.266 0.456987 80.3498 1.51054C70.6561 1.97643 60.99 2.80321 51.3064 3.62674C46.4701 4.03809 41.6208 4.47023 36.8257 5.37797C36.3447 5.46917 35.2554 5.57107 34.7265 5.67863C34.4574 5.73353 34.2653 5.81694 34.1772 5.87328C33.791 6.11786 33.7112 6.47091 33.7027 6.71779C33.697 6.9028 33.7263 7.55355 34.5152 7.74163C45.7875 10.4329 58.3448 8.42743 69.8206 8.16188C72.7583 8.09387 75.6949 8.03689 78.6338 7.99029ZM88.202 7.87557C84.7928 8.49729 81.4162 9.22622 78.0859 10.0842C86.3482 9.84689 94.6098 9.71344 102.874 9.68078C116.511 9.19267 130.147 8.8453 143.8 8.46305C134.977 8.22578 126.15 8.07039 117.309 7.95405C107.611 7.82624 97.9073 7.79546 88.202 7.87557ZM135.494 2.14419C117.132 2.09877 98.7402 2.5412 80.3867 3.42354C70.7102 3.88872 61.0645 4.71413 51.3997 5.53611C47.5967 5.85954 43.7833 6.19451 39.9972 6.76995C49.7534 7.96514 60.1758 6.47052 69.8245 6.24739C75.9182 6.10642 82.0145 6.01209 88.1085 5.96152C103.629 3.1502 119.82 2.53509 135.494 2.14419Z"/>
</svg>
