<svg width="95" height="52" viewBox="0 0 95 52" fill="none" xmlns="http://www.w3.org/2000/svg">
<path d="M8.78554 43.1527C8.29551 42.6208 7.77281 42.2289 7.21744 41.977C6.66207 41.7204 6.04837 41.5921 5.37633 41.5921C4.83496 41.5921 4.30526 41.7017 3.78723 41.921C3.27387 42.1403 2.82817 42.4459 2.45015 42.8378C2.05813 43.2437 1.76411 43.6986 1.5681 44.2025C1.37208 44.7017 1.27408 45.2546 1.27408 45.8611C1.27408 46.337 1.33241 46.7756 1.44909 47.1768C1.56576 47.578 1.74077 47.9466 1.97412 48.2826C2.38481 48.8658 2.88884 49.316 3.48621 49.6332C4.08825 49.9458 4.73696 50.1021 5.43233 50.1021C6.0857 50.1021 6.69241 49.9668 7.25244 49.6962C7.81248 49.4256 8.32351 49.0221 8.78554 48.4855V50.1021C8.27684 50.4707 7.72847 50.7507 7.14044 50.9419C6.55707 51.1286 5.9527 51.2219 5.32733 51.2219C4.78596 51.2219 4.25859 51.1402 3.74523 50.9769C3.23186 50.8183 2.75117 50.585 2.30314 50.2771C1.55643 49.7592 0.984727 49.1224 0.588036 48.3665C0.196012 47.6107 0 46.7802 0 45.8751C0 45.0866 0.130675 44.3704 0.392024 43.7266C0.65804 43.0781 1.06173 42.4902 1.6031 41.963C2.1258 41.4591 2.7045 41.0835 3.3392 40.8362C3.97391 40.5843 4.66695 40.4583 5.41833 40.4583C6.01103 40.4583 6.58507 40.5493 7.14044 40.7313C7.6958 40.9086 8.24417 41.1862 8.78554 41.5641V43.1527Z" fill="#406440"/>
<path d="M16.2634 42.9918L14.6323 46.7639H17.8945L16.2634 42.9918ZM16.2634 40.2974L20.9257 50.9489H19.6026L18.2725 47.8067H14.2683L12.9382 50.9489H11.6151L16.2634 40.2974Z" fill="#406440"/>
<path d="M24.1333 50.9489V40.2974L31.6307 48.4855V40.7033H32.7928V51.3479L25.2953 43.2507V50.9489H24.1333Z" fill="#406440"/>
<path d="M37.4005 50.9489V40.2974L44.8979 48.4855V40.7033H46.06V51.3479L38.5626 43.2507V50.9489H37.4005Z" fill="#406440"/>
<path d="M53.9089 42.9918L52.2778 46.7639H55.54L53.9089 42.9918ZM53.9089 40.2974L58.5712 50.9489H57.2481L55.918 47.8067H51.9138L50.5837 50.9489H49.2606L53.9089 40.2974Z" fill="#406440"/>
<path d="M61.7788 50.9489V40.7033H62.9968V49.7872H66.8681V50.9489H61.7788Z" fill="#406440"/>
<path d="M70.4817 50.9489V40.7033H71.6998V50.9489H70.4817Z" fill="#406440"/>
<path d="M76.3285 50.9489V40.2974L83.8259 48.4855V40.7033H84.988V51.3479L77.4905 43.2507V50.9489H76.3285Z" fill="#406440"/>
<path d="M89.5957 50.9489V40.7033H95V41.816H90.8137V44.7554H95V45.8891H90.8137V49.8152H95V50.9489H89.5957Z" fill="#406440"/>
<path fill-rule="evenodd" clip-rule="evenodd" d="M47.6196 0L47.8945 0.46402C49.299 2.83405 50.6762 7.11901 51.0195 12.3889C51.1968 15.1122 51.0986 18.1044 50.5829 21.2388C51.1952 19.836 51.8696 18.4446 52.5937 17.1093C54.9207 12.8181 57.7938 9.04446 60.8141 7.37945L61.3934 7.0601L61.3174 7.7172C60.6091 13.8348 58.3525 18.9693 55.7489 22.8692C55.3232 23.507 54.8878 24.1123 54.4479 24.6839C55.2591 24.1071 56.0911 23.5548 56.9306 23.0397C60.3735 20.9274 64.0037 19.4049 66.8731 19.4617L67.5344 19.4748L67.14 20.0058C64.0969 24.1028 60.3499 26.8526 56.8656 28.5727C56.2705 28.8664 55.6825 29.1304 55.1064 29.3661C55.5768 29.3323 56.0471 29.3087 56.5136 29.2963C59.4465 29.2179 62.3027 29.5772 64.1089 30.6682L64.6751 31.0102L64.068 31.2729C60.6546 32.7498 57.2879 33.1199 54.4622 32.9358C51.6434 32.7522 49.3405 32.0155 48.0543 31.2533L47.6392 31.0073C47.6142 31.0113 47.5886 31.0143 47.5626 31.0162L47.5633 31.0192L47.5584 31.0165C47.5392 31.0177 47.5197 31.0184 47.5 31.0184C47.4669 31.0184 47.4345 31.0166 47.4027 31.013L47.3918 31.0192L47.3934 31.0119C47.3707 31.0091 47.3484 31.0055 47.3265 31.001L46.9007 31.2533C45.6146 32.0155 43.3116 32.7522 40.4929 32.9358C37.6672 33.1199 34.3005 32.7498 30.8871 31.2729L30.28 31.0102L30.8462 30.6682C32.6524 29.5772 35.5085 29.2179 38.4415 29.2963C38.908 29.3087 39.3783 29.3323 39.8486 29.3661C39.2725 29.1304 38.6846 28.8664 38.0895 28.5727C34.6052 26.8526 30.8582 24.1028 27.8151 20.0058L27.4207 19.4748L28.082 19.4617C30.9513 19.4049 34.5816 20.9274 38.0245 23.0397C38.864 23.5548 39.696 24.1071 40.5071 24.6839C40.0673 24.1123 39.6319 23.507 39.2061 22.8692C36.6026 18.9693 34.3459 13.8348 33.6377 7.7172L33.5616 7.0601L34.1409 7.37945C37.1613 9.04446 40.0344 12.8181 42.3614 17.1093C43.147 18.5581 43.8742 20.0731 44.527 21.5969C44.2313 19.681 44.0592 17.6569 44.0228 15.6296C43.9198 9.90481 44.896 4.04722 47.3184 0.447484L47.6196 0ZM49.5784 25.6911C49.3779 26.386 49.1552 27.0847 48.9088 27.7859C48.8857 27.8643 48.8629 27.9425 48.8404 28.0204L59.9739 8.73657C57.5422 10.5525 55.1887 13.7543 53.1931 17.4343C51.7562 20.084 50.5179 22.9573 49.5784 25.6911ZM45.863 27.1795C45.7467 26.8436 45.6355 26.4976 45.5296 26.1427C44.5733 23.2753 43.2782 20.2303 41.762 17.4343C39.7664 13.7543 37.4129 10.5525 34.9812 8.73657L46.1147 28.0204C46.0344 27.7427 45.9505 27.4622 45.863 27.1795ZM50.3391 12.4333C50.5941 16.3487 50.2691 20.8299 48.9279 25.4861C48.685 26.1937 48.4618 26.8924 48.2599 27.576C48.1581 27.8653 48.0522 28.155 47.9422 28.4451V2.02789C49.0498 4.41887 50.0546 8.06611 50.3391 12.4333ZM47.2604 28.8252C46.992 28.2552 46.7421 27.634 46.5119 26.9701C46.406 26.6282 46.295 26.2831 46.1792 25.9355C45.2945 22.9668 44.771 19.3162 44.7045 15.6173C44.6121 10.4802 45.4028 5.33784 47.2604 1.86839V28.8252ZM43.8367 30.6191C43.6103 30.5706 43.3788 30.5167 43.1427 30.4574C41.6246 30.1927 40.0023 30.02 38.4233 29.9778C36.254 29.9199 34.2062 30.1095 32.6291 30.6191L43.8367 30.6191ZM43.2849 29.7901C41.8119 29.4182 40.138 28.8236 38.3913 27.9613C35.4012 26.4852 32.2131 24.2322 29.4683 20.9927L45.4106 30.1969C45.283 30.1812 45.1526 30.1633 45.0194 30.1433C44.4622 30.013 43.8813 29.8945 43.2849 29.7901ZM29.5335 20.243L44.3247 28.7828C43.7733 28.3044 43.2035 27.7625 42.6271 27.1596C41.0865 25.8984 39.3937 24.6796 37.668 23.6209C34.8342 21.8823 31.9534 20.6011 29.5335 20.243ZM39.7732 22.4907C40.8507 24.1047 41.9866 25.4997 43.0914 26.6586C44.1125 27.4961 45.0681 28.3524 45.9247 29.1947C45.9715 29.2293 46.018 29.2633 46.0642 29.2966L34.5617 9.37369C35.4459 14.6094 37.4711 19.0423 39.7732 22.4907ZM45.1863 31.3009L32.8824 31.3009C35.5813 32.1841 38.193 32.4024 40.4486 32.2555C42.3411 32.1322 43.9722 31.7527 45.1863 31.3009ZM51.1183 30.6191C51.3447 30.5706 51.5762 30.5167 51.8124 30.4574C53.3305 30.1927 54.9528 30.02 56.5318 29.9778C58.7011 29.9199 60.7489 30.1095 62.326 30.6191L51.1183 30.6191ZM51.6702 29.7901C53.1432 29.4182 54.817 28.8236 56.5638 27.9613C59.5539 26.4852 62.7419 24.2322 65.4868 20.9927L49.5445 30.1969C49.6721 30.1812 49.8025 30.1633 49.9356 30.1433C50.4928 30.013 51.0738 29.8945 51.6702 29.7901ZM65.4216 20.243L50.6303 28.7828C51.1818 28.3044 51.7516 27.7625 52.328 27.1596C53.8686 25.8984 55.5614 24.6796 57.2871 23.6209C60.1209 21.8823 63.0017 20.6011 65.4216 20.243ZM55.1819 22.4907C54.1043 24.1047 52.9684 25.4997 51.8637 26.6586C50.8426 27.4961 49.887 28.3524 49.0304 29.1947C48.9836 29.2293 48.9371 29.2633 48.8908 29.2966L60.3934 9.37369C59.5091 14.6094 57.4839 19.0423 55.1819 22.4907ZM49.7688 31.3009L62.0726 31.3009C59.3738 32.1841 56.762 32.4024 54.5065 32.2555C52.614 32.1322 50.9829 31.7527 49.7688 31.3009Z" fill="#406440"/>
</svg>
