<svg width="60" height="60" viewBox="0 0 60 60" fill="none" xmlns="http://www.w3.org/2000/svg">
<path fill="#fff" d="M59.6111 1.10087C59.5247 0.750074 59.2507 0.476122 58.8999 0.389686C57.3232 0.0013055 55.6686 -0.0973122 53.9812 0.097461C50.0024 0.556208 46.0925 2.52791 42.9712 5.64908C39.85 8.77025 37.8784 12.6804 37.4195 16.6591C37.2471 18.1551 37.3059 19.6253 37.5922 21.0385C37.5786 21.0528 37.5636 21.0652 37.5508 21.0805C33.2725 26.1632 30.376 31.6838 28.4455 37.1483C26.7883 30.7168 24.3165 24.8002 21.0713 19.5244C16.2403 11.6706 9.64913 5.15003 1.48045 0.143336C1.05332 -0.118435 0.497383 -0.0126902 0.196087 0.387353C-0.105209 0.787396 -0.0532434 1.35085 0.316217 1.68895C10.238 10.7699 17.2277 21.324 21.0914 33.0578C22.7185 37.9994 24.8818 46.068 24.8818 59.0281C24.8818 59.565 25.3169 60 25.8537 60H30.0005C30.5373 60 30.9725 59.565 30.9725 59.0281C30.9725 58.3235 30.9687 57.6022 30.9648 56.8655C30.914 47.1848 30.85 34.9284 39.2517 22.4645C40.0427 22.6065 40.8506 22.6781 41.6702 22.6781C42.2225 22.6779 42.7804 22.6457 43.3415 22.5809C47.3203 22.1221 51.2303 20.1504 54.3515 17.0293C57.4726 13.9081 59.4443 9.99785 59.9032 6.01919C60.098 4.33232 59.9996 2.67746 59.6111 1.10087ZM22.9378 32.4499C20.1407 23.955 15.7536 16.0665 9.84754 8.89115C13.5653 12.3397 16.7652 16.234 19.4155 20.5428C23.0785 26.498 25.7297 33.3039 27.2983 40.772C26.7854 42.5973 26.3723 44.4035 26.0422 46.1723C25.4815 41.9452 24.5333 37.2956 22.9378 32.4499ZM29.021 56.8757C29.0232 57.2738 29.0251 57.6674 29.0265 58.0562H26.8321C26.9177 51.6714 27.8727 43.6878 31.0524 35.7394C28.9509 43.503 28.9894 50.8525 29.021 56.8757ZM57.9723 5.79655C57.1255 13.1399 50.4622 19.8031 43.1189 20.65C42.236 20.752 41.3655 20.7594 40.5154 20.6766C43.664 16.4201 47.8439 12.1527 53.3934 7.96822C53.8221 7.64515 53.9075 7.03569 53.5843 6.60701C53.2612 6.17858 52.6518 6.09305 52.2232 6.41612C46.9864 10.3647 42.6935 14.5566 39.29 19.0555C39.247 18.3425 39.2658 17.6164 39.3507 16.8817C40.1976 9.53833 46.8608 2.87509 54.2041 2.02822C55.4522 1.88437 56.6763 1.92519 57.8513 2.14951C58.0754 3.3245 58.1163 4.54848 57.9723 5.79655Z"/>
</svg>