<svg width="62" height="57" viewBox="0 0 62 57" fill="none" xmlns="http://www.w3.org/2000/svg">
<path fill-rule="evenodd" clip-rule="evenodd" d="M4.14201 19.0714C5.65837 13.6287 6.42331 7.93044 7.12408 2.40272C7.27099 1.21213 6.45118 0.106757 5.29617 0.021715C4.14032 -0.148369 3.08326 0.702548 2.93635 1.80809C2.26175 7.16573 1.53988 12.6929 0.0800802 17.8805C-0.236534 18.986 0.41526 20.1771 1.53649 20.5173C2.65688 20.8575 3.82455 20.177 4.14201 19.0714Z" fill="#9AAC9A"/>
<path fill-rule="evenodd" clip-rule="evenodd" d="M25.6403 35.5689C34.5147 26.8096 42.2469 16.9447 51.3594 8.35548C52.2105 7.5901 52.2561 6.22943 51.4616 5.37901C50.6662 4.5286 49.3289 4.44389 48.4778 5.2943C39.3391 13.8835 31.5816 23.7484 22.681 32.5077C21.8502 33.3581 21.8384 34.7184 22.6557 35.5689C23.4721 36.3342 24.8095 36.4193 25.6403 35.5689Z" fill="#9AAC9A"/>
<path fill-rule="evenodd" clip-rule="evenodd" d="M59.7746 51.983C54.6953 52.2382 49.616 52.4928 44.5358 52.7479C43.3724 52.7479 42.474 53.7689 42.5306 54.9595C42.588 56.1501 43.5784 57 44.7427 57C49.8304 56.7449 54.9174 56.4903 60.0043 56.2351C61.1677 56.1501 62.0602 55.1294 61.9968 53.9388C61.9335 52.8333 60.9372 51.898 59.7746 51.983Z" fill="#9AAC9A"/>
</svg>
