<svg width="60" height="60" viewBox="0 0 60 60" fill="#fff" xmlns="http://www.w3.org/2000/svg">
<path fill="#fff" d="M11.8686 28.5473C8.30195 28.5473 5.40771 25.6727 5.40771 22.1512C5.40771 18.6292 8.30198 15.7546 11.8686 15.7546C15.4346 15.7546 18.3285 18.6287 18.3285 22.1512C18.3285 25.6732 15.4346 28.5473 11.8686 28.5473ZM11.8686 16.6901C8.82708 16.6901 6.3432 19.1336 6.3432 22.1512C6.3432 25.1684 8.82711 27.6118 11.8686 27.6118C14.9091 27.6118 17.393 25.1684 17.393 22.1512C17.393 19.1336 14.9091 16.6901 11.8686 16.6901Z" stroke="#406440"/>
<path fill="#fff" d="M14.6688 47.6414H2.52945C1.40769 47.6414 0.5 46.7348 0.5 45.628V42.4625C0.5 36.2629 5.59552 31.2097 11.8685 31.2097C14.3362 31.2097 16.682 31.9792 18.6547 33.4344C18.8628 33.5881 18.907 33.8808 18.7537 34.089C18.6 34.2966 18.3076 34.3408 18.0994 34.1878C16.2886 32.8519 14.1327 32.1452 11.8685 32.1452C6.12083 32.1452 1.43548 36.768 1.43548 42.4625V45.628C1.43548 46.2354 1.93879 46.7059 2.52945 46.7059H14.6692C14.9272 46.7059 15.137 46.9155 15.137 47.1736C15.137 47.4313 14.9272 47.6414 14.6688 47.6414Z" stroke="#406440"/>
<path fill="#fff" d="M41.529 33.7432L41.5289 33.7432C41.3289 33.9052 41.0345 33.875 40.8712 33.6739C40.7087 33.4727 40.7399 33.1784 40.9406 33.0161L40.9409 33.0159C42.9622 31.3801 45.5166 30.4778 48.132 30.4778C54.4046 30.4778 59.5001 35.5305 59.5001 41.7306V44.896C59.5001 46.0023 58.5924 46.909 57.4706 46.909H45.3313C45.0733 46.909 44.8636 46.6993 44.8636 46.4412C44.8636 46.1834 45.0735 45.9735 45.3313 45.9735H57.4711C58.0612 45.9735 58.5651 45.504 58.5651 44.896V41.7306C58.5651 36.0351 53.8797 31.4133 48.132 31.4133C45.7307 31.4133 43.3863 32.2398 41.529 33.7432Z" stroke="#406440"/>
<path fill="#fff" d="M48.1313 28.0691C44.5652 28.0691 41.6714 25.1949 41.6714 21.6729C41.6714 18.1509 44.5652 15.2764 48.1313 15.2764C51.6979 15.2764 54.5921 18.1505 54.5921 21.6729C54.5921 25.1953 51.6975 28.0691 48.1313 28.0691ZM48.1313 16.2119C45.0907 16.2119 42.6069 18.6554 42.6069 21.6729C42.6069 24.6906 45.0908 27.1336 48.1313 27.1336C51.1727 27.1336 53.6566 24.6906 53.6566 21.6729C53.6566 18.6553 51.1723 16.2119 48.1313 16.2119Z" stroke="#406440"/>
<path fill="#fff" d="M43.1346 50.7903H16.8657C15.3933 50.7903 14.2012 49.6016 14.2012 48.1489V43.6967C14.2012 35.0798 21.2836 28.0603 30.0002 28.0603C38.7167 28.0603 45.7991 35.0798 45.7991 43.6967V48.1489C45.7991 49.6016 44.607 50.7903 43.1346 50.7903ZM30.0002 28.9963C21.8093 28.9963 15.1367 35.5854 15.1367 43.6972V48.1494C15.1367 49.0993 15.921 49.8553 16.8657 49.8553H43.1341C44.0789 49.8553 44.8632 49.0993 44.8632 48.1494V43.6972C44.8632 43.6972 44.8632 43.6972 44.8632 43.6972C44.8637 35.5854 38.191 28.9963 30.0002 28.9963Z" stroke="#406440"/>
<path fill="#fff" d="M29.6638 25.9296C25.0041 25.9296 21.2197 22.1746 21.2197 17.5692C21.2197 12.9643 25.0036 9.20972 29.6638 9.20972C34.3244 9.20972 38.1083 12.9648 38.1083 17.5697C38.1083 22.175 34.324 25.9296 29.6638 25.9296ZM29.6638 10.1452C25.529 10.1452 22.1552 13.4698 22.1552 17.5697C22.1552 21.67 25.529 24.9946 29.6638 24.9946C33.799 24.9946 37.1728 21.67 37.1728 17.5697C37.1728 13.4698 33.799 10.1452 29.6638 10.1452Z" stroke="#406440"/>
</svg>
